<svg version="1.1"
     viewBox="0 0 120 120"
     xmlns="http://www.w3.org/2000/svg"
     id="graph">


    <line x1="0%" y1="50%" x2="100%" y2="50%" stroke-width="0.5" stroke="black"/>
    <line x1="50%" y1="0%" x2="50%" y2="100%" stroke-width="0.5" stroke="black"/>


    <line x1="110" y1="55" x2="110" y2="65" stroke-width="0.3" stroke="black"/>
    <line x1="100" y1="55" x2="100" y2="65" stroke-width="0.3" stroke="black"/>
    <line x1="90" y1="55" x2="90" y2="65" stroke-width="0.3" stroke="black"/>
    <line x1="80" y1="55" x2="80" y2="65" stroke-width="0.3" stroke="black"/>
    <line x1="70" y1="55" x2="70" y2="65" stroke-width="0.3" stroke="black"/>

    <line x1="50" y1="55" x2="50" y2="65" stroke-width="0.3" stroke="black"/>
    <line x1="40" y1="55" x2="40" y2="65" stroke-width="0.3" stroke="black"/>
    <line x1="30" y1="55" x2="30" y2="65" stroke-width="0.3" stroke="black"/>
    <line x1="20" y1="55" x2="20" y2="65" stroke-width="0.3" stroke="black"/>
    <line x1="10" y1="55" x2="10" y2="65" stroke-width="0.3" stroke="black"/>


    <line x1="55" y1="10" x2="65" y2="10" stroke-width="0.3" stroke="black"/>
    <line x1="55" y1="20" x2="65" y2="20" stroke-width="0.3" stroke="black"/>
    <line x1="55" y1="30" x2="65" y2="30" stroke-width="0.3" stroke="black"/>
    <line x1="55" y1="40" x2="65" y2="40" stroke-width="0.3" stroke="black"/>
    <line x1="55" y1="50" x2="65" y2="50" stroke-width="0.3" stroke="black"/>

    <line x1="55" y1="70" x2="65" y2="70" stroke-width="0.3" stroke="black"/>
    <line x1="55" y1="80" x2="65" y2="80" stroke-width="0.3" stroke="black"/>
    <line x1="55" y1="90" x2="65" y2="90" stroke-width="0.3" stroke="black"/>
    <line x1="55" y1="100" x2="65" y2="100" stroke-width="0.3" stroke="black"/>
    <line x1="55" y1="110" x2="65" y2="110" stroke-width="0.3" stroke="black"/>


    <line x1="50%" y1="0%" x2="46%" y2="5%" stroke-width="0.3" stroke="black"/>
    <line x1="50%" y1="0%" x2="54%" y2="5%" stroke-width="0.3" stroke="black"/>

    <line x1="95%" y1="46%" x2="100%" y2="50%" stroke-width="0.3" stroke="black"/>
    <line x1="95%" y1="54%" x2="100%" y2="50%" stroke-width="0.3" stroke="black"/>


    <text x="50%" dy="7" y="50%" font-size="80%" font-family="monospace">0</text>
    <text x="90%" dy="7" y="50%" font-size="80%" font-family="monospace">5</text>
    <text x="50%" dx="2" y="10%" font-size="80%" font-family="monospace">5</text>

<!--    <circle cx="80" cy="80" r="3" fill="yellow"/>-->
</svg>
